<svg width="316" height="302" viewBox="0 0 316 302" fill="none" xmlns="http://www.w3.org/2000/svg">
<rect x="11.7507" y="152.697" width="102.499" height="66.3834" rx="2.56848" fill="url(#paint0_linear_611_26460)"/>
<rect x="16.8714" y="159.235" width="91.5372" height="53.3066" rx="2.56848" fill="url(#paint1_linear_611_26460)"/>
<path fill-rule="evenodd" clip-rule="evenodd" d="M29.0404 167.75C28.1734 167.75 27.4705 168.452 27.4705 169.319V172.078C27.4705 172.945 28.1734 173.648 29.0404 173.648H53.2599C54.127 173.648 54.8299 172.945 54.8299 172.078V169.319C54.8299 168.452 54.127 167.75 53.2599 167.75H29.0404ZM29.0404 179.928C28.1733 179.928 27.4704 180.631 27.4704 181.498V183.068C27.4704 183.935 28.1733 184.638 29.0404 184.638H95.7644C96.6315 184.638 97.3344 183.935 97.3344 183.068V181.498C97.3344 180.631 96.6315 179.928 95.7644 179.928H29.0404ZM27.4704 190.918C27.4704 190.051 28.1733 189.348 29.0404 189.348H95.7644C96.6315 189.348 97.3344 190.051 97.3344 190.918V192.488C97.3344 193.355 96.6315 194.058 95.7644 194.058H29.0404C28.1733 194.058 27.4704 193.355 27.4704 192.488V190.918ZM29.0404 198.768C28.1733 198.768 27.4704 199.471 27.4704 200.338V201.908C27.4704 202.775 28.1733 203.478 29.0404 203.478H57.3191C58.1862 203.478 58.8891 202.775 58.8891 201.908V200.338C58.8891 199.471 58.1862 198.768 57.3191 198.768H29.0404Z" fill="url(#paint2_linear_611_26460)"/>
<rect x="11.7507" y="224.08" width="102.499" height="7.22286" rx="2" fill="url(#paint3_linear_611_26460)"/>
<path d="M25.9581 289.297C25.8435 290.51 25.3956 291.458 24.6144 292.141C23.8331 292.818 22.7941 293.156 21.4972 293.156C20.5909 293.156 19.7915 292.943 19.0988 292.516C18.4113 292.083 17.88 291.471 17.505 290.68C17.13 289.888 16.9347 288.969 16.9191 287.922V286.859C16.9191 285.786 17.1092 284.841 17.4894 284.023C17.8696 283.206 18.4139 282.576 19.1222 282.133C19.8357 281.69 20.6586 281.469 21.5909 281.469C22.8461 281.469 23.8566 281.81 24.6222 282.492C25.3878 283.174 25.8331 284.138 25.9581 285.383H23.9894C23.8956 284.565 23.656 283.977 23.2706 283.617C22.8904 283.253 22.3305 283.07 21.5909 283.07C20.7316 283.07 20.0701 283.385 19.6066 284.016C19.1482 284.641 18.9139 285.56 18.9034 286.773V287.781C18.9034 289.01 19.1222 289.948 19.5597 290.594C20.0024 291.24 20.6482 291.562 21.4972 291.562C22.2732 291.562 22.8566 291.388 23.2472 291.039C23.6378 290.69 23.8852 290.109 23.9894 289.297H25.9581ZM30.9881 291.422H36.1522V293H29.0116V281.625H30.9881V291.422ZM45.4713 290.352H41.065L40.1431 293H38.0884L42.3853 281.625H44.1588L48.4634 293H46.4009L45.4713 290.352ZM41.6197 288.758H44.9166L43.2681 284.039L41.6197 288.758ZM56.9856 290.07C56.9856 289.57 56.8085 289.185 56.4544 288.914C56.1054 288.643 55.4726 288.37 54.5559 288.094C53.6393 287.818 52.9101 287.51 52.3684 287.172C51.332 286.521 50.8138 285.672 50.8138 284.625C50.8138 283.708 51.1861 282.953 51.9309 282.359C52.6809 281.766 53.6523 281.469 54.845 281.469C55.6367 281.469 56.3424 281.615 56.9622 281.906C57.582 282.198 58.069 282.615 58.4231 283.156C58.7773 283.693 58.9544 284.289 58.9544 284.945H56.9856C56.9856 284.352 56.7981 283.888 56.4231 283.555C56.0533 283.216 55.5221 283.047 54.8294 283.047C54.1835 283.047 53.6809 283.185 53.3216 283.461C52.9674 283.737 52.7903 284.122 52.7903 284.617C52.7903 285.034 52.983 285.383 53.3684 285.664C53.7539 285.94 54.3893 286.211 55.2747 286.477C56.1601 286.737 56.871 287.036 57.4075 287.375C57.944 287.708 58.3372 288.094 58.5872 288.531C58.8372 288.964 58.9622 289.471 58.9622 290.055C58.9622 291.003 58.5976 291.758 57.8684 292.32C57.1445 292.878 56.1601 293.156 54.9153 293.156C54.0924 293.156 53.3346 293.005 52.6419 292.703C51.9544 292.396 51.4179 291.974 51.0325 291.438C50.6523 290.901 50.4622 290.276 50.4622 289.562H52.4388C52.4388 290.208 52.6523 290.708 53.0794 291.062C53.5065 291.417 54.1184 291.594 54.9153 291.594C55.6028 291.594 56.1184 291.456 56.4622 291.18C56.8111 290.898 56.9856 290.529 56.9856 290.07ZM67.9219 290.07C67.9219 289.57 67.7448 289.185 67.3906 288.914C67.0417 288.643 66.4089 288.37 65.4922 288.094C64.5755 287.818 63.8464 287.51 63.3047 287.172C62.2682 286.521 61.75 285.672 61.75 284.625C61.75 283.708 62.1224 282.953 62.8672 282.359C63.6172 281.766 64.5885 281.469 65.7812 281.469C66.5729 281.469 67.2786 281.615 67.8984 281.906C68.5182 282.198 69.0052 282.615 69.3594 283.156C69.7135 283.693 69.8906 284.289 69.8906 284.945H67.9219C67.9219 284.352 67.7344 283.888 67.3594 283.555C66.9896 283.216 66.4583 283.047 65.7656 283.047C65.1198 283.047 64.6172 283.185 64.2578 283.461C63.9036 283.737 63.7266 284.122 63.7266 284.617C63.7266 285.034 63.9193 285.383 64.3047 285.664C64.6901 285.94 65.3255 286.211 66.2109 286.477C67.0964 286.737 67.8073 287.036 68.3438 287.375C68.8802 287.708 69.2734 288.094 69.5234 288.531C69.7734 288.964 69.8984 289.471 69.8984 290.055C69.8984 291.003 69.5339 291.758 68.8047 292.32C68.0807 292.878 67.0964 293.156 65.8516 293.156C65.0286 293.156 64.2708 293.005 63.5781 292.703C62.8906 292.396 62.3542 291.974 61.9688 291.438C61.5885 290.901 61.3984 290.276 61.3984 289.562H63.375C63.375 290.208 63.5885 290.708 64.0156 291.062C64.4427 291.417 65.0547 291.594 65.8516 291.594C66.5391 291.594 67.0547 291.456 67.3984 291.18C67.7474 290.898 67.9219 290.529 67.9219 290.07ZM74.9988 293H73.03V281.625H74.9988V293ZM87.3881 289.297C87.2735 290.51 86.8256 291.458 86.0444 292.141C85.2631 292.818 84.2241 293.156 82.9272 293.156C82.0209 293.156 81.2215 292.943 80.5288 292.516C79.8413 292.083 79.31 291.471 78.935 290.68C78.56 289.888 78.3647 288.969 78.3491 287.922V286.859C78.3491 285.786 78.5392 284.841 78.9194 284.023C79.2996 283.206 79.8439 282.576 80.5522 282.133C81.2657 281.69 82.0886 281.469 83.0209 281.469C84.2761 281.469 85.2866 281.81 86.0522 282.492C86.8178 283.174 87.2631 284.138 87.3881 285.383H85.4194C85.3256 284.565 85.086 283.977 84.7006 283.617C84.3204 283.253 83.7605 283.07 83.0209 283.07C82.1616 283.07 81.5001 283.385 81.0366 284.016C80.5782 284.641 80.3439 285.56 80.3334 286.773V287.781C80.3334 289.01 80.5522 289.948 80.9897 290.594C81.4324 291.24 82.0782 291.562 82.9272 291.562C83.7032 291.562 84.2866 291.388 84.6772 291.039C85.0678 290.69 85.3152 290.109 85.4194 289.297H87.3881ZM96.8087 290.352H92.4025L91.4806 293H89.4259L93.7228 281.625H95.4962L99.8009 293H97.7384L96.8087 290.352ZM92.9572 288.758H96.2541L94.6056 284.039L92.9572 288.758ZM104.354 291.422H109.518V293H102.378V281.625H104.354V291.422Z" fill="#01145E"/>
<path d="M275.414 228.578C275.414 240.373 277.486 241.199 269.757 241.199" stroke="#A9A8AF"/>
<path d="M274.027 228.546C274.027 238.306 275.611 238.989 269.701 238.989" stroke="#A9A8AF"/>
<path d="M276.82 228.321C276.82 242.251 279.427 243.226 269.701 243.226" stroke="#A9A8AF"/>
<path d="M259.372 228.619C259.372 240.414 257.327 241.24 264.957 241.24" stroke="#A9A8AF"/>
<path d="M260.743 228.587C260.742 238.347 259.179 239.03 265.013 239.03" stroke="#A9A8AF"/>
<path d="M257.984 228.362C257.984 242.292 255.41 243.267 265.013 243.267" stroke="#A9A8AF"/>
<path d="M246.568 228.491C246.568 240.286 248.639 241.111 240.91 241.111" stroke="#A9A8AF"/>
<path d="M245.179 228.459C245.18 238.219 246.763 238.902 240.854 238.902" stroke="#A9A8AF"/>
<path d="M247.973 228.233C247.973 242.164 250.58 243.138 240.854 243.138" stroke="#A9A8AF"/>
<path d="M230.525 228.532C230.525 240.327 228.48 241.152 236.11 241.152" stroke="#A9A8AF"/>
<path d="M231.895 228.501C231.895 238.261 230.331 238.944 236.166 238.944" stroke="#A9A8AF"/>
<path d="M229.137 228.274C229.137 242.205 226.563 243.179 236.166 243.179" stroke="#A9A8AF"/>
<path d="M262.054 228.951H272.755V245.596C272.755 247.806 270.965 249.596 268.755 249.596H266.054C263.845 249.596 262.054 247.806 262.054 245.596V228.951Z" fill="url(#paint4_linear_611_26460)"/>
<path d="M233.206 228.862H243.908V245.508C243.908 247.717 242.117 249.508 239.908 249.508H237.206C234.997 249.508 233.206 247.717 233.206 245.508V228.862Z" fill="url(#paint5_linear_611_26460)"/>
<rect x="246.257" y="233.4" width="13.4477" height="3.03049" rx="1.51524" fill="url(#paint6_linear_611_26460)"/>
<path d="M248.94 236.429H257.021V257.999C257.021 260.208 255.189 261.999 252.98 261.999V261.999C250.771 261.999 248.94 260.208 248.94 257.999V236.429Z" fill="url(#paint7_linear_611_26460)"/>
<ellipse cx="252.98" cy="197.775" rx="30.4882" ry="3.01253" fill="url(#paint8_linear_611_26460)"/>
<ellipse cx="252.98" cy="208.778" rx="28.4581" ry="2.55694" fill="url(#paint9_linear_611_26460)"/>
<ellipse cx="252.98" cy="227.435" rx="28.4581" ry="2.55694" fill="url(#paint10_linear_611_26460)"/>
<rect x="243.645" y="166.826" width="3.30342" height="29.8313" fill="url(#paint11_linear_611_26460)"/>
<rect x="258.923" y="166.826" width="3.30342" height="29.8313" fill="url(#paint12_linear_611_26460)"/>
<ellipse cx="252.98" cy="170.187" rx="32.9504" ry="4.11957" fill="url(#paint13_linear_611_26460)"/>
<path d="M226.817 137.086V226.812" stroke="#A9A8AF" stroke-linecap="round" stroke-linejoin="round"/>
<path d="M236.246 135.703L236.246 226.812" stroke="#A9A8AF" stroke-linecap="round" stroke-linejoin="round"/>
<path d="M248.335 135.83L248.335 226.812" stroke="#A9A8AF" stroke-linecap="round" stroke-linejoin="round"/>
<path d="M263.823 135.703L263.823 226.812" stroke="#A9A8AF" stroke-linecap="round" stroke-linejoin="round"/>
<path d="M270.497 137.086V226.812" stroke="#A9A8AF" stroke-linecap="round" stroke-linejoin="round"/>
<path d="M272.638 137.086V226.812" stroke="#A9A8AF" stroke-linecap="round" stroke-linejoin="round"/>
<path d="M279.028 226.807V182.918C279.028 181.949 277.903 181.288 277.756 180.33C277.698 179.953 277.899 179.596 277.942 179.524C277.948 179.515 277.953 179.507 277.959 179.498C278.167 179.195 278.379 178.991 278.589 178.86C279.542 178.268 278.931 180.096 278.22 179.228V179.228C277.969 178.922 277.849 179.035 277.625 178.708C277.435 178.429 277.612 178.159 277.804 177.976C277.987 177.8 278.184 177.634 278.369 177.459C278.534 177.304 278.694 177.199 278.849 177.133C279.812 176.721 279.679 178.529 278.745 178.056C278.474 177.919 278.277 177.714 278.164 177.575C278.087 177.479 278.011 177.381 277.939 177.28C277.749 177.012 277.721 176.779 277.784 176.58C278.054 175.736 278.94 175.104 278.94 174.218V137.487" stroke="#A9A8AF" stroke-miterlimit="10" stroke-linecap="round" stroke-linejoin="round"/>
<path d="M242.528 226.934V196.821C242.528 195.852 241.403 195.191 241.256 194.233C241.198 193.856 241.399 193.499 241.442 193.427C241.448 193.418 241.453 193.409 241.459 193.401C241.667 193.098 241.879 192.893 242.089 192.763C243.042 192.171 242.431 193.999 241.72 193.131V193.131C241.469 192.825 241.349 192.938 241.125 192.611C240.935 192.332 241.112 192.062 241.303 191.879C241.487 191.703 241.684 191.537 241.869 191.362C242.034 191.207 242.194 191.101 242.349 191.035C243.312 190.624 243.179 192.432 242.245 191.959C241.974 191.822 241.777 191.617 241.664 191.478C241.587 191.382 241.511 191.284 241.439 191.183C241.249 190.915 241.221 190.682 241.284 190.483C241.554 189.639 242.44 189.007 242.44 188.121V136.212" stroke="#A9A8AF" stroke-miterlimit="10" stroke-linecap="round" stroke-linejoin="round"/>
<path d="M257.044 136.212V150.503C257.044 151.472 258.169 152.133 258.316 153.09C258.374 153.468 258.173 153.825 258.13 153.896C258.124 153.905 258.119 153.914 258.113 153.923C257.905 154.226 257.692 154.43 257.483 154.56C256.53 155.152 257.141 153.324 257.852 154.192V154.192C258.103 154.499 258.223 154.385 258.447 154.713C258.637 154.992 258.46 155.262 258.268 155.445C258.085 155.621 257.888 155.787 257.703 155.961C257.538 156.117 257.378 156.222 257.223 156.288C256.26 156.7 256.392 154.892 257.327 155.364C257.598 155.501 257.795 155.707 257.908 155.845C257.985 155.941 258.061 156.04 258.133 156.14C258.323 156.408 258.351 156.642 258.288 156.841C258.017 157.684 257.132 158.317 257.132 159.202V226.806" stroke="#A9A8AF" stroke-miterlimit="10" stroke-linecap="round" stroke-linejoin="round"/>
<path d="M233.905 136.721V161.694C233.905 162.662 235.03 163.324 235.177 164.281C235.235 164.659 235.034 165.016 234.991 165.087C234.985 165.096 234.979 165.105 234.973 165.114C234.766 165.417 234.553 165.621 234.344 165.751C233.391 166.343 234.002 164.515 234.712 165.383V165.383C234.963 165.69 235.084 165.576 235.307 165.903C235.498 166.182 235.321 166.453 235.129 166.636C234.946 166.811 234.749 166.978 234.564 167.152C234.399 167.308 234.238 167.413 234.084 167.479C233.121 167.891 233.253 166.083 234.188 166.555C234.459 166.692 234.656 166.897 234.768 167.036C234.846 167.132 234.922 167.231 234.993 167.331C235.184 167.599 235.212 167.833 235.148 168.032C234.878 168.875 233.993 169.508 233.993 170.393V226.933" stroke="#A9A8AF" stroke-miterlimit="10" stroke-linecap="round" stroke-linejoin="round"/>
<rect x="250.707" y="134.92" width="4.54571" height="98.4828" fill="url(#paint14_linear_611_26460)"/>
<rect x="227.91" y="137.061" width="3.30342" height="89.9002" fill="url(#paint15_linear_611_26460)"/>
<rect x="274.598" y="136.503" width="3.30342" height="90.7428" fill="url(#paint16_linear_611_26460)"/>
<rect x="237.248" y="136.603" width="3.30342" height="31.927" fill="url(#paint17_linear_611_26460)"/>
<rect x="265.229" y="136.603" width="3.30342" height="31.927" fill="url(#paint18_linear_611_26460)"/>
<path fill-rule="evenodd" clip-rule="evenodd" d="M252.98 147.557C275.893 147.557 294.467 144.507 294.467 140.744C294.467 136.982 275.893 133.932 252.98 133.932C230.068 133.932 211.494 136.982 211.494 140.744C211.494 144.507 230.068 147.557 252.98 147.557ZM252.98 146.149C273.501 146.149 290.137 143.96 290.137 141.261C290.137 138.561 273.501 136.372 252.98 136.372C232.459 136.372 215.824 138.561 215.824 141.261C215.824 143.96 232.459 146.149 252.98 146.149Z" fill="url(#paint19_linear_611_26460)"/>
<path fill-rule="evenodd" clip-rule="evenodd" d="M214.832 127.416C212.58 128.405 211.351 130.613 211.011 133.049C210.69 135.341 211.25 137.526 212.412 139.294C216.418 136.219 233.059 133.913 252.98 133.913C272.954 133.913 289.631 136.231 293.58 139.318C294.774 137.522 295.335 135.284 294.967 132.948C294.592 130.575 293.378 128.427 291.194 127.427C286.354 125.211 275.219 121.822 252.588 122.008C230.412 122.19 219.603 125.322 214.832 127.416Z" fill="url(#paint20_linear_611_26460)"/>
<path d="M220.722 287.608C220.722 288.687 220.551 289.621 220.207 290.413C219.868 291.2 219.392 291.825 218.777 292.288L220.73 293.812L219.449 294.968L217.027 293.054C216.709 293.121 216.368 293.155 216.004 293.155C215.087 293.155 214.267 292.931 213.543 292.483C212.824 292.03 212.267 291.387 211.871 290.554C211.48 289.72 211.282 288.759 211.277 287.671V287.03C211.277 285.921 211.472 284.942 211.863 284.093C212.259 283.244 212.814 282.595 213.527 282.147C214.246 281.694 215.066 281.468 215.988 281.468C216.926 281.468 217.751 281.692 218.465 282.14C219.183 282.582 219.738 283.223 220.129 284.062C220.519 284.895 220.717 285.866 220.722 286.976V287.608ZM218.738 287.015C218.738 285.733 218.499 284.762 218.019 284.101C217.54 283.439 216.863 283.108 215.988 283.108C215.139 283.108 214.472 283.444 213.988 284.116C213.509 284.783 213.264 285.726 213.254 286.944V287.608C213.254 288.838 213.493 289.799 213.972 290.491C214.457 291.184 215.134 291.53 216.004 291.53C216.884 291.53 217.558 291.197 218.027 290.53C218.501 289.864 218.738 288.89 218.738 287.608V287.015ZM232.331 281.624V289.226C232.331 290.434 231.943 291.392 231.167 292.101C230.396 292.804 229.367 293.155 228.081 293.155C226.779 293.155 225.745 292.809 224.979 292.116C224.213 291.418 223.831 290.452 223.831 289.218V281.624H225.799V289.233C225.799 289.994 225.992 290.575 226.377 290.976C226.763 291.377 227.331 291.577 228.081 291.577C229.601 291.577 230.362 290.775 230.362 289.171V281.624H232.331ZM241.923 290.351H237.517L236.595 292.999H234.54L238.837 281.624H240.611L244.915 292.999H242.853L241.923 290.351ZM238.072 288.757H241.368L239.72 284.038L238.072 288.757ZM256.516 292.999H254.539L249.469 284.929V292.999H247.492V281.624H249.469L254.555 289.726V281.624H256.516V292.999ZM268.116 283.218H264.569V292.999H262.608V283.218H259.092V281.624H268.116V283.218ZM279.216 281.624V289.226C279.216 290.434 278.828 291.392 278.052 292.101C277.281 292.804 276.253 293.155 274.966 293.155C273.664 293.155 272.63 292.809 271.865 292.116C271.099 291.418 270.716 290.452 270.716 289.218V281.624H272.685V289.233C272.685 289.994 272.878 290.575 273.263 290.976C273.649 291.377 274.216 291.577 274.966 291.577C276.487 291.577 277.248 290.775 277.248 289.171V281.624H279.216ZM285.176 281.624L288.457 290.343L291.731 281.624H294.285V292.999H292.317V289.249L292.512 284.233L289.152 292.999H287.738L284.387 284.241L284.582 289.249V292.999H282.613V281.624H285.176Z" fill="#01145E"/>
<defs>
<linearGradient id="paint0_linear_611_26460" x1="63" y1="152.697" x2="63" y2="219.08" gradientUnits="userSpaceOnUse">
<stop stop-color="#C6ECFC"/>
<stop offset="1" stop-color="#A3D3FB"/>
</linearGradient>
<linearGradient id="paint1_linear_611_26460" x1="62.64" y1="159.235" x2="62.64" y2="212.541" gradientUnits="userSpaceOnUse">
<stop stop-color="#A3D3FB"/>
<stop offset="1" stop-color="#76AAEF"/>
</linearGradient>
<linearGradient id="paint2_linear_611_26460" x1="62.4024" y1="167.75" x2="62.4024" y2="203.478" gradientUnits="userSpaceOnUse">
<stop stop-color="#4B7AD9"/>
<stop offset="1" stop-color="#2157CE"/>
</linearGradient>
<linearGradient id="paint3_linear_611_26460" x1="63" y1="224.08" x2="63" y2="231.303" gradientUnits="userSpaceOnUse">
<stop stop-color="#C6ECFC"/>
<stop offset="1" stop-color="#A3D3FB"/>
</linearGradient>
<linearGradient id="paint4_linear_611_26460" x1="267.405" y1="228.951" x2="267.405" y2="250.573" gradientUnits="userSpaceOnUse">
<stop stop-color="#E9E7EA"/>
<stop offset="1" stop-color="#CFCBCE"/>
</linearGradient>
<linearGradient id="paint5_linear_611_26460" x1="238.557" y1="228.862" x2="238.557" y2="250.484" gradientUnits="userSpaceOnUse">
<stop stop-color="#E9E7EA"/>
<stop offset="1" stop-color="#CFCBCE"/>
</linearGradient>
<linearGradient id="paint6_linear_611_26460" x1="252.98" y1="233.4" x2="252.98" y2="236.43" gradientUnits="userSpaceOnUse">
<stop stop-color="#E9E7EA"/>
<stop offset="1" stop-color="#CFCBCE"/>
</linearGradient>
<linearGradient id="paint7_linear_611_26460" x1="252.98" y1="236.429" x2="252.98" y2="261.999" gradientUnits="userSpaceOnUse">
<stop stop-color="#E9E7EA"/>
<stop offset="1" stop-color="#CFCBCE"/>
</linearGradient>
<linearGradient id="paint8_linear_611_26460" x1="252.98" y1="194.763" x2="252.98" y2="200.788" gradientUnits="userSpaceOnUse">
<stop stop-color="#E9E7EA"/>
<stop offset="1" stop-color="#CFCBCE"/>
</linearGradient>
<linearGradient id="paint9_linear_611_26460" x1="252.98" y1="206.221" x2="252.98" y2="211.335" gradientUnits="userSpaceOnUse">
<stop stop-color="#E9E7EA"/>
<stop offset="1" stop-color="#CFCBCE"/>
</linearGradient>
<linearGradient id="paint10_linear_611_26460" x1="252.98" y1="224.878" x2="252.98" y2="229.992" gradientUnits="userSpaceOnUse">
<stop stop-color="#E9E7EA"/>
<stop offset="1" stop-color="#CFCBCE"/>
</linearGradient>
<linearGradient id="paint11_linear_611_26460" x1="245.297" y1="166.826" x2="245.297" y2="196.658" gradientUnits="userSpaceOnUse">
<stop stop-color="#E9E7EA"/>
<stop offset="1" stop-color="#CFCBCE"/>
</linearGradient>
<linearGradient id="paint12_linear_611_26460" x1="260.575" y1="166.826" x2="260.575" y2="196.658" gradientUnits="userSpaceOnUse">
<stop stop-color="#E9E7EA"/>
<stop offset="1" stop-color="#CFCBCE"/>
</linearGradient>
<linearGradient id="paint13_linear_611_26460" x1="252.98" y1="166.067" x2="252.98" y2="174.307" gradientUnits="userSpaceOnUse">
<stop stop-color="#E9E7EA"/>
<stop offset="1" stop-color="#CFCBCE"/>
</linearGradient>
<linearGradient id="paint14_linear_611_26460" x1="252.98" y1="134.92" x2="252.98" y2="233.403" gradientUnits="userSpaceOnUse">
<stop stop-color="#E9E7EA"/>
<stop offset="1" stop-color="#CFCBCE"/>
</linearGradient>
<linearGradient id="paint15_linear_611_26460" x1="229.561" y1="137.061" x2="229.561" y2="226.961" gradientUnits="userSpaceOnUse">
<stop stop-color="#E9E7EA"/>
<stop offset="1" stop-color="#CFCBCE"/>
</linearGradient>
<linearGradient id="paint16_linear_611_26460" x1="276.25" y1="136.503" x2="276.25" y2="227.246" gradientUnits="userSpaceOnUse">
<stop stop-color="#E9E7EA"/>
<stop offset="1" stop-color="#CFCBCE"/>
</linearGradient>
<linearGradient id="paint17_linear_611_26460" x1="238.9" y1="136.603" x2="238.9" y2="168.53" gradientUnits="userSpaceOnUse">
<stop stop-color="#E9E7EA"/>
<stop offset="1" stop-color="#CFCBCE"/>
</linearGradient>
<linearGradient id="paint18_linear_611_26460" x1="266.881" y1="136.603" x2="266.881" y2="168.53" gradientUnits="userSpaceOnUse">
<stop stop-color="#E9E7EA"/>
<stop offset="1" stop-color="#CFCBCE"/>
</linearGradient>
<linearGradient id="paint19_linear_611_26460" x1="252.98" y1="133.932" x2="252.98" y2="147.557" gradientUnits="userSpaceOnUse">
<stop stop-color="#E9E7EA"/>
<stop offset="1" stop-color="#CFCBCE"/>
</linearGradient>
<linearGradient id="paint20_linear_611_26460" x1="253.042" y1="121.93" x2="253.042" y2="131.18" gradientUnits="userSpaceOnUse">
<stop stop-color="#E9E7EA"/>
<stop offset="1" stop-color="#CFCBCE"/>
</linearGradient>
</defs>
</svg>
