<svg xmlns:xlink="http://www.w3.org/1999/xlink" width="111" height="94" viewBox="0 0 111 94" fill="none" xmlns="http://www.w3.org/2000/svg">
<path d="M55.0814 30.2362C70.2553 30.2362 83.9728 32.1704 93.8799 35.2848C98.8365 36.8429 102.811 38.6879 105.536 40.713C108.27 42.7452 109.663 44.8927 109.663 47.0517C109.663 49.2107 108.27 51.3582 105.536 53.3904C102.811 55.4155 98.8365 57.2605 93.8799 58.8186C83.9728 61.933 70.2553 63.8672 55.0814 63.8672C39.9075 63.8672 26.1901 61.933 16.2829 58.8186C11.3264 57.2605 7.35165 55.4155 4.62683 53.3904C1.89266 51.3582 0.5 49.2107 0.5 47.0517C0.5 44.8927 1.89266 42.7452 4.62683 40.713C7.35165 38.6879 11.3264 36.8429 16.2829 35.2848C26.1901 32.1704 39.9075 30.2362 55.0814 30.2362Z" stroke="#CCCBD1"/>
<path d="M68.8559 37.4071C77.5593 49.8369 83.843 62.1829 86.9743 72.0847C88.5409 77.0386 89.3095 81.3527 89.2134 84.7464C89.117 88.1517 88.1567 90.5242 86.3881 91.7626C84.6196 93.0009 82.0616 93.0919 78.8287 92.0178C75.6069 90.9473 71.8158 88.7496 67.6965 85.5832C59.4628 79.2541 50.0105 69.1268 41.3071 56.6971C32.6037 44.2673 26.32 31.9213 23.1887 22.0194C21.6221 17.0656 20.8536 12.7514 20.9496 9.35781C21.046 5.95252 22.0063 3.57993 23.7749 2.34159C25.5434 1.10325 28.1014 1.01226 31.3343 2.08638C34.5561 3.15683 38.3472 5.35454 42.4665 8.52098C50.7002 14.8501 60.1526 24.9774 68.8559 37.4071Z" stroke="#CCCBD1"/>
<path d="M68.856 56.6968C60.1526 69.1265 50.7003 79.2538 42.4665 85.5829C38.3472 88.7494 34.5561 90.9471 31.3343 92.0175C28.1014 93.0916 25.5435 93.0007 23.7749 91.7623C22.0064 90.524 21.046 88.1514 20.9497 84.7461C20.8536 81.3525 21.6222 77.0384 23.1888 72.0845C26.3201 62.1826 32.6037 49.8366 41.3071 37.4069C50.0105 24.9771 59.4629 14.8498 67.6966 8.52072C71.8159 5.35428 75.607 3.15657 78.8288 2.08612C82.0617 1.012 84.6197 1.10299 86.3882 2.34133C88.1567 3.57967 89.1171 5.95226 89.2135 9.35754C89.3095 12.7512 88.541 17.0653 86.9744 22.0192C83.843 31.921 77.5594 44.2671 68.856 56.6968Z" stroke="#CCCBD1"/>
<circle cx="55.0814" cy="47.0518" r="12" fill="url(#paint0_linear_611_26371)"/>
<circle cx="69.6428" cy="6.87158" r="4" fill="url(#paint1_linear_611_26371)"/>
<circle cx="10.5911" cy="56.1221" r="4" fill="url(#paint2_linear_611_26371)"/>
<circle cx="88.2789" cy="76.5962" r="4" fill="url(#paint3_linear_611_26371)"/>
<defs>
<linearGradient id="paint0_linear_611_26371" x1="55.0814" y1="35.0518" x2="55.0814" y2="59.0518" gradientUnits="userSpaceOnUse">
<stop stop-color="#76AAEF"/>
<stop offset="1" stop-color="#4B7AD9"/>
</linearGradient>
<linearGradient id="paint1_linear_611_26371" x1="69.6428" y1="2.87158" x2="69.6428" y2="10.8716" gradientUnits="userSpaceOnUse">
<stop stop-color="#A3D3FB"/>
<stop offset="1" stop-color="#76AAEF"/>
</linearGradient>
<linearGradient id="paint2_linear_611_26371" x1="10.5911" y1="52.1221" x2="10.5911" y2="60.1221" gradientUnits="userSpaceOnUse">
<stop stop-color="#A3D3FB"/>
<stop offset="1" stop-color="#76AAEF"/>
</linearGradient>
<linearGradient id="paint3_linear_611_26371" x1="88.2789" y1="72.5962" x2="88.2789" y2="80.5962" gradientUnits="userSpaceOnUse">
<stop stop-color="#A3D3FB"/>
<stop offset="1" stop-color="#76AAEF"/>
</linearGradient>
</defs>
</svg>
