<svg xmlns:xlink="http://www.w3.org/1999/xlink" width="110" height="94" viewBox="0 0 110 94" fill="none" xmlns="http://www.w3.org/2000/svg">
<path d="M24.2683 70.1609L23.8234 70.332C23.504 70.4461 23.0477 70.5602 22.4545 70.6743C21.8613 70.7883 21.1996 70.8682 20.4695 70.9138H19.8193V69.3396H20.4695C21.5419 69.2939 22.5343 69.1228 23.447 68.8262C24.3596 68.5296 24.9984 68.2558 25.3635 68.0049C25.7285 67.7539 26.0479 67.5029 26.3217 67.252C26.3673 67.1835 26.5042 67.1493 26.7324 67.1493C26.9377 67.1493 27.1316 67.2177 27.3142 67.3546V77.5873L27.3484 87.8543C27.5081 88.014 27.645 88.1167 27.7591 88.1623C27.8731 88.2079 28.1469 88.2536 28.5804 88.2992C29.0139 88.3448 29.7212 88.3676 30.7023 88.3676H31.5921V89.9419H31.2156C30.7365 89.8734 28.9227 89.8392 25.7741 89.8392C22.6712 89.8392 20.8802 89.8734 20.4011 89.9419H19.9904V88.3676H20.8802C21.3822 88.3676 21.8157 88.3676 22.1807 88.3676C22.5457 88.3676 22.8309 88.3562 23.0363 88.3334C23.2416 88.3106 23.4241 88.2764 23.5839 88.2307C23.7436 88.1851 23.8348 88.1623 23.8576 88.1623C23.8805 88.1623 23.9489 88.1053 24.063 87.9912C24.1771 87.8771 24.2455 87.8315 24.2683 87.8543V70.1609Z" fill="#01145E"/>
<path d="M39.5428 69.5449C40.8204 67.6969 42.5658 66.7728 44.7789 66.7728C45.8741 66.7728 46.9692 67.0694 48.0643 67.6626C49.1595 68.2558 50.0493 69.3054 50.7337 70.8112C51.5779 72.7049 52 75.3058 52 78.614C52 82.1504 51.5095 84.8541 50.5284 86.7249C50.0721 87.6832 49.4447 88.4475 48.6461 89.0179C47.8476 89.5883 47.1517 89.9419 46.5585 90.0788C45.9653 90.2157 45.3835 90.2955 44.8131 90.3184C44.2199 90.3184 43.6267 90.2499 43.0335 90.113C42.4403 89.9761 41.7445 89.6111 40.9459 89.0179C40.1474 88.4247 39.52 87.6604 39.0637 86.7249C38.0826 84.8541 37.5921 82.1504 37.5921 78.614C37.5921 74.6442 38.2423 71.6211 39.5428 69.5449ZM47.243 69.1342C46.5585 68.4041 45.7486 68.0391 44.8131 68.0391C43.8549 68.0391 43.0335 68.4041 42.3491 69.1342C41.7787 69.7274 41.4022 70.5488 41.2197 71.5983C41.0372 72.6478 40.9459 74.8381 40.9459 78.1691C40.9459 81.774 41.0372 84.1468 41.2197 85.2876C41.4022 86.4283 41.8129 87.3295 42.4517 87.9912C43.0906 88.6756 43.8777 89.0179 44.8131 89.0179C45.7258 89.0179 46.5015 88.6756 47.1403 87.9912C47.802 87.3067 48.2126 86.3485 48.3724 85.1164C48.5321 83.8844 48.6233 81.5686 48.6461 78.1691C48.6461 74.8609 48.5549 72.682 48.3724 71.6325C48.1898 70.583 47.8134 69.7503 47.243 69.1342Z" fill="#2157CE"/>
<path d="M62.449 70.1609L62.0041 70.332C61.6847 70.4461 61.2284 70.5602 60.6352 70.6743C60.042 70.7883 59.3803 70.8682 58.6502 70.9138H58V69.3396H58.6502C59.7226 69.2939 60.715 69.1228 61.6277 68.8262C62.5403 68.5296 63.1791 68.2558 63.5441 68.0049C63.9092 67.7539 64.2286 67.5029 64.5024 67.252C64.548 67.1835 64.6849 67.1493 64.9131 67.1493C65.1184 67.1493 65.3123 67.2177 65.4949 67.3546V77.5873L65.5291 87.8543C65.6888 88.014 65.8257 88.1167 65.9398 88.1623C66.0538 88.2079 66.3276 88.2536 66.7611 88.2992C67.1946 88.3448 67.9019 88.3676 68.883 88.3676H69.7728V89.9419H69.3963C68.9172 89.8734 67.1034 89.8392 63.9548 89.8392C60.8519 89.8392 59.0609 89.8734 58.5818 89.9419H58.1711V88.3676H59.0609C59.5629 88.3676 59.9963 88.3676 60.3614 88.3676C60.7264 88.3676 61.0116 88.3562 61.217 88.3334C61.4223 88.3106 61.6048 88.2764 61.7645 88.2307C61.9243 88.1851 62.0155 88.1623 62.0383 88.1623C62.0611 88.1623 62.1296 88.1053 62.2437 87.9912C62.3577 87.8771 62.4262 87.8315 62.449 87.8543V70.1609Z" fill="#01145E"/>
<path d="M77.7235 69.5449C79.0011 67.6969 80.7465 66.7728 82.9596 66.7728C84.0548 66.7728 85.1499 67.0694 86.245 67.6626C87.3402 68.2558 88.23 69.3054 88.9144 70.8112C89.7586 72.7049 90.1807 75.3058 90.1807 78.614C90.1807 82.1504 89.6902 84.8541 88.7091 86.7249C88.2528 87.6832 87.6254 88.4475 86.8268 89.0179C86.0283 89.5883 85.3324 89.9419 84.7392 90.0788C84.146 90.2157 83.5642 90.2955 82.9938 90.3184C82.4006 90.3184 81.8074 90.2499 81.2142 90.113C80.621 89.9761 79.9252 89.6111 79.1266 89.0179C78.3281 88.4247 77.7007 87.6604 77.2444 86.7249C76.2633 84.8541 75.7728 82.1504 75.7728 78.614C75.7728 74.6442 76.423 71.6211 77.7235 69.5449ZM85.4237 69.1342C84.7392 68.4041 83.9293 68.0391 82.9938 68.0391C82.0356 68.0391 81.2142 68.4041 80.5298 69.1342C79.9594 69.7274 79.5829 70.5488 79.4004 71.5983C79.2179 72.6478 79.1266 74.8381 79.1266 78.1691C79.1266 81.774 79.2179 84.1468 79.4004 85.2876C79.5829 86.4283 79.9936 87.3295 80.6325 87.9912C81.2713 88.6756 82.0584 89.0179 82.9938 89.0179C83.9065 89.0179 84.6822 88.6756 85.321 87.9912C85.9827 87.3067 86.3933 86.3485 86.5531 85.1164C86.7128 83.8844 86.804 81.5686 86.8268 78.1691C86.8268 74.8609 86.7356 72.682 86.5531 71.6325C86.3705 70.583 85.9941 69.7503 85.4237 69.1342Z" fill="#2157CE"/>
<path d="M21.77 37.9995C23.0477 36.1515 24.7931 35.2274 27.0062 35.2274C28.1013 35.2274 29.1964 35.524 30.2916 36.1172C31.3867 36.7104 32.2765 37.7599 32.961 39.2658C33.8052 41.1594 34.2272 43.7604 34.2272 47.0686C34.2272 50.605 33.7367 53.3087 32.7557 55.1795C32.2993 56.1378 31.6719 56.9021 30.8734 57.4725C30.0748 58.0429 29.379 58.3965 28.7858 58.5334C28.1926 58.6703 27.6108 58.7501 27.0404 58.7729C26.4472 58.7729 25.854 58.7045 25.2608 58.5676C24.6676 58.4307 23.9717 58.0657 23.1732 57.4725C22.3746 56.8793 21.7472 56.115 21.2909 55.1795C20.3098 53.3087 19.8193 50.605 19.8193 47.0686C19.8193 43.0988 20.4695 40.0757 21.77 37.9995ZM29.4702 37.5888C28.7858 36.8587 27.9758 36.4937 27.0404 36.4937C26.0821 36.4937 25.2608 36.8587 24.5763 37.5888C24.0059 38.182 23.6295 39.0034 23.447 40.0529C23.2644 41.1024 23.1732 43.2927 23.1732 46.6237C23.1732 50.2286 23.2644 52.6014 23.447 53.7421C23.6295 54.8829 24.0402 55.7841 24.679 56.4458C25.3178 57.1302 26.105 57.4725 27.0404 57.4725C27.953 57.4725 28.7287 57.1302 29.3676 56.4458C30.0292 55.7613 30.4399 54.8031 30.5996 53.571C30.7593 52.339 30.8506 50.0232 30.8734 46.6237C30.8734 43.3155 30.7821 41.1366 30.5996 40.0871C30.4171 39.0376 30.0406 38.2048 29.4702 37.5888Z" fill="#2157CE"/>
<path d="M44.6763 38.6155L44.2314 38.7866C43.9119 38.9007 43.4556 39.0148 42.8624 39.1289C42.2692 39.2429 41.6076 39.3228 40.8775 39.3684H40.2272V37.7942H40.8775C41.9498 37.7485 42.9423 37.5774 43.8549 37.2808C44.7675 36.9842 45.4064 36.7104 45.7714 36.4595C46.1364 36.2085 46.4559 35.9575 46.7296 35.7065C46.7753 35.6381 46.9122 35.6039 47.1403 35.6039C47.3457 35.6039 47.5396 35.6723 47.7221 35.8092V46.0419L47.7563 56.3089C47.916 56.4686 48.0529 56.5713 48.167 56.6169C48.2811 56.6625 48.5549 56.7081 48.9884 56.7538C49.4219 56.7994 50.1291 56.8222 51.1102 56.8222H52V58.3965H51.6236C51.1444 58.328 49.3306 58.2938 46.1821 58.2938C43.0792 58.2938 41.2882 58.328 40.809 58.3965H40.3984V56.8222H41.2882C41.7901 56.8222 42.2236 56.8222 42.5886 56.8222C42.9537 56.8222 43.2389 56.8108 43.4442 56.788C43.6496 56.7652 43.8321 56.731 43.9918 56.6853C44.1515 56.6397 44.2428 56.6169 44.2656 56.6169C44.2884 56.6169 44.3568 56.5598 44.4709 56.4458C44.585 56.3317 44.6534 56.2861 44.6763 56.3089V38.6155Z" fill="#01145E"/>
<path d="M59.9507 37.9995C61.2284 36.1515 62.9738 35.2274 65.1869 35.2274C66.282 35.2274 67.3771 35.524 68.4723 36.1172C69.5674 36.7104 70.4572 37.7599 71.1417 39.2658C71.9859 41.1594 72.4079 43.7604 72.4079 47.0686C72.4079 50.605 71.9174 53.3087 70.9363 55.1795C70.48 56.1378 69.8526 56.9021 69.0541 57.4725C68.2555 58.0429 67.5597 58.3965 66.9665 58.5334C66.3733 58.6703 65.7915 58.7501 65.2211 58.7729C64.6279 58.7729 64.0347 58.7045 63.4415 58.5676C62.8483 58.4307 62.1524 58.0657 61.3539 57.4725C60.5553 56.8793 59.9279 56.115 59.4716 55.1795C58.4905 53.3087 58 50.605 58 47.0686C58 43.0988 58.6502 40.0757 59.9507 37.9995ZM67.6509 37.5888C66.9665 36.8587 66.1565 36.4937 65.2211 36.4937C64.2628 36.4937 63.4415 36.8587 62.757 37.5888C62.1866 38.182 61.8102 39.0034 61.6277 40.0529C61.4451 41.1024 61.3539 43.2927 61.3539 46.6237C61.3539 50.2286 61.4451 52.6014 61.6277 53.7421C61.8102 54.8829 62.2209 55.7841 62.8597 56.4458C63.4985 57.1302 64.2856 57.4725 65.2211 57.4725C66.1337 57.4725 66.9094 57.1302 67.5483 56.4458C68.2099 55.7613 68.6206 54.8031 68.7803 53.571C68.94 52.339 69.0313 50.0232 69.0541 46.6237C69.0541 43.3155 68.9628 41.1366 68.7803 40.0871C68.5978 39.0376 68.2213 38.2048 67.6509 37.5888Z" fill="#2157CE"/>
<path d="M82.857 38.6155L82.4121 38.7866C82.0926 38.9007 81.6363 39.0148 81.0431 39.1289C80.4499 39.2429 79.7883 39.3228 79.0582 39.3684H78.4079V37.7942H79.0582C80.1305 37.7485 81.123 37.5774 82.0356 37.2808C82.9482 36.9842 83.587 36.7104 83.9521 36.4595C84.3171 36.2085 84.6366 35.9575 84.9103 35.7065C84.956 35.6381 85.0929 35.6039 85.321 35.6039C85.5264 35.6039 85.7203 35.6723 85.9028 35.8092V46.0419L85.937 56.3089C86.0967 56.4686 86.2336 56.5713 86.3477 56.6169C86.4618 56.6625 86.7356 56.7081 87.1691 56.7538C87.6026 56.7994 88.3098 56.8222 89.2909 56.8222H90.1807V58.3965H89.8042C89.3251 58.328 87.5113 58.2938 84.3628 58.2938C81.2599 58.2938 79.4689 58.328 78.9897 58.3965H78.5791V56.8222H79.4689C79.9708 56.8222 80.4043 56.8222 80.7693 56.8222C81.1344 56.8222 81.4196 56.8108 81.6249 56.788C81.8303 56.7652 82.0128 56.731 82.1725 56.6853C82.3322 56.6397 82.4235 56.6169 82.4463 56.6169C82.4691 56.6169 82.5375 56.5598 82.6516 56.4458C82.7657 56.3317 82.8341 56.2861 82.857 56.3089V38.6155Z" fill="#01145E"/>
<path d="M24.2683 7.06961L23.8234 7.24073C23.504 7.35481 23.0477 7.46888 22.4545 7.58296C21.8613 7.69704 21.1996 7.77689 20.4695 7.82252H19.8193V6.24826H20.4695C21.5419 6.20263 22.5343 6.03151 23.447 5.73491C24.3596 5.43831 24.9984 5.16453 25.3635 4.91356C25.7285 4.66259 26.0479 4.41162 26.3217 4.16065C26.3673 4.0922 26.5042 4.05798 26.7324 4.05798C26.9377 4.05798 27.1316 4.12642 27.3142 4.26332V14.496L27.3484 24.763C27.5081 24.9227 27.645 25.0254 27.7591 25.071C27.8731 25.1166 28.1469 25.1622 28.5804 25.2079C29.0139 25.2535 29.7212 25.2763 30.7023 25.2763H31.5921V26.8506H31.2156C30.7365 26.7821 28.9227 26.7479 25.7741 26.7479C22.6712 26.7479 20.8802 26.7821 20.4011 26.8506H19.9904V25.2763H20.8802C21.3822 25.2763 21.8157 25.2763 22.1807 25.2763C22.5457 25.2763 22.8309 25.2649 23.0363 25.2421C23.2416 25.2193 23.4241 25.1851 23.5839 25.1394C23.7436 25.0938 23.8348 25.071 23.8576 25.071C23.8805 25.071 23.9489 25.0139 24.063 24.8999C24.1771 24.7858 24.2455 24.7402 24.2683 24.763V7.06961Z" fill="#01145E"/>
<path d="M39.5428 6.45361C40.8204 4.60556 42.5658 3.68153 44.7789 3.68153C45.8741 3.68153 46.9692 3.97813 48.0643 4.57133C49.1595 5.16454 50.0493 6.21405 50.7337 7.71986C51.5779 9.61354 52 12.2145 52 15.5227C52 19.0591 51.5095 21.7628 50.5284 23.6336C50.0721 24.5919 49.4447 25.3562 48.6461 25.9266C47.8476 26.497 47.1517 26.8506 46.5585 26.9875C45.9653 27.1244 45.3835 27.2042 44.8131 27.2271C44.2199 27.2271 43.6267 27.1586 43.0335 27.0217C42.4403 26.8848 41.7445 26.5198 40.9459 25.9266C40.1474 25.3334 39.52 24.5691 39.0637 23.6336C38.0826 21.7628 37.5921 19.0591 37.5921 15.5227C37.5921 11.5529 38.2423 8.52981 39.5428 6.45361ZM47.243 6.04293C46.5585 5.31284 45.7486 4.94779 44.8131 4.94779C43.8549 4.94779 43.0335 5.31284 42.3491 6.04293C41.7787 6.63613 41.4022 7.45749 41.2197 8.507C41.0372 9.55651 40.9459 11.7468 40.9459 15.0778C40.9459 18.6827 41.0372 21.0555 41.2197 22.1962C41.4022 23.337 41.8129 24.2382 42.4517 24.8999C43.0906 25.5843 43.8777 25.9266 44.8131 25.9266C45.7258 25.9266 46.5015 25.5843 47.1403 24.8999C47.802 24.2154 48.2126 23.2572 48.3724 22.0251C48.5321 20.7931 48.6233 18.4773 48.6461 15.0778C48.6461 11.7696 48.5549 9.59073 48.3724 8.54122C48.1898 7.49171 47.8134 6.65895 47.243 6.04293Z" fill="#2157CE"/>
<path d="M59.9507 6.45361C61.2284 4.60556 62.9738 3.68153 65.1869 3.68153C66.282 3.68153 67.3771 3.97813 68.4723 4.57133C69.5674 5.16454 70.4572 6.21405 71.1417 7.71986C71.9859 9.61354 72.4079 12.2145 72.4079 15.5227C72.4079 19.0591 71.9174 21.7628 70.9363 23.6336C70.48 24.5919 69.8526 25.3562 69.0541 25.9266C68.2555 26.497 67.5597 26.8506 66.9665 26.9875C66.3733 27.1244 65.7915 27.2042 65.2211 27.2271C64.6279 27.2271 64.0347 27.1586 63.4415 27.0217C62.8483 26.8848 62.1524 26.5198 61.3539 25.9266C60.5553 25.3334 59.9279 24.5691 59.4716 23.6336C58.4905 21.7628 58 19.0591 58 15.5227C58 11.5529 58.6502 8.52981 59.9507 6.45361ZM67.6509 6.04293C66.9665 5.31284 66.1565 4.94779 65.2211 4.94779C64.2628 4.94779 63.4415 5.31284 62.757 6.04293C62.1866 6.63613 61.8102 7.45749 61.6277 8.507C61.4451 9.55651 61.3539 11.7468 61.3539 15.0778C61.3539 18.6827 61.4451 21.0555 61.6277 22.1962C61.8102 23.337 62.2209 24.2382 62.8597 24.8999C63.4985 25.5843 64.2856 25.9266 65.2211 25.9266C66.1337 25.9266 66.9094 25.5843 67.5483 24.8999C68.2099 24.2154 68.6206 23.2572 68.7803 22.0251C68.94 20.7931 69.0313 18.4773 69.0541 15.0778C69.0541 11.7696 68.9628 9.59073 68.7803 8.54122C68.5978 7.49171 68.2213 6.65895 67.6509 6.04293Z" fill="#2157CE"/>
<path d="M82.857 7.06961L82.4121 7.24073C82.0926 7.35481 81.6363 7.46888 81.0431 7.58296C80.4499 7.69704 79.7883 7.77689 79.0582 7.82252H78.4079V6.24826H79.0582C80.1305 6.20263 81.123 6.03151 82.0356 5.73491C82.9482 5.43831 83.587 5.16453 83.9521 4.91356C84.3171 4.66259 84.6366 4.41162 84.9103 4.16065C84.956 4.0922 85.0929 4.05798 85.321 4.05798C85.5264 4.05798 85.7203 4.12642 85.9028 4.26332V14.496L85.937 24.763C86.0967 24.9227 86.2336 25.0254 86.3477 25.071C86.4618 25.1166 86.7356 25.1622 87.1691 25.2079C87.6026 25.2535 88.3098 25.2763 89.2909 25.2763H90.1807V26.8506H89.8042C89.3251 26.7821 87.5113 26.7479 84.3628 26.7479C81.2599 26.7479 79.4689 26.7821 78.9897 26.8506H78.5791V25.2763H79.4689C79.9708 25.2763 80.4043 25.2763 80.7693 25.2763C81.1344 25.2763 81.4196 25.2649 81.6249 25.2421C81.8303 25.2193 82.0128 25.1851 82.1725 25.1394C82.3322 25.0938 82.4235 25.071 82.4463 25.071C82.4691 25.071 82.5375 25.0139 82.6516 24.8999C82.7657 24.7858 82.8341 24.7402 82.857 24.763V7.06961Z" fill="#01145E"/>
</svg>
